<svg id="Capa_1" enable-background="new 0 0 512 512" height="512" viewBox="0 0 512 512" width="512" xmlns="http://www.w3.org/2000/svg"><g><path d="m436.185 32.138h-31.31c-16.365 0-30.057 11.739-32.556 27.912l-5.556 35.962-354.549 82.883c-8 1.868-13.284 9.692-12.03 17.813l17.715 114.672c1.199 7.763 7.772 13.398 15.628 13.398h124.486l-64.032 40.619c-6.149 3.901-9.821 10.577-9.821 17.859v18.17c0 4.145 3.359 7.504 7.504 7.504s7.504-3.359 7.504-7.504v-18.17c0-2.114 1.066-4.054 2.852-5.187l17.149-10.878h129.36l17.538 11.125c5.096 3.232 10.979 4.94 17.012 4.94h75.749l4.775 23.247c.729 3.551 3.854 5.996 7.343 5.996.5 0 1.008-.051 1.517-.155 4.06-.834 6.674-4.801 5.841-8.86l-15.767-76.759c-1.526-7.43-6.902-13.313-13.769-15.742l38.382-248.641c1.36-8.806 8.815-15.197 17.724-15.197h31.31c4.145 0 7.504-3.359 7.504-7.504s-3.359-7.503-7.503-7.503zm-139.034 95.559 26.126-6.107-6.878 54.048-24.381 3.766zm23.764 131.353 20.939-1.616-7.98 51.655c-.061.396-.396.682-.796.682h-18.617zm-30.426-64.226 23.94-3.698-6.859 53.901-22.235 1.716zm15.147 65.405s-6.144 48.951-6.075 49.543h-20.488c.005-.043.015-.085.019-.128l4.738-47.732zm-50.445-122.723 26.522-6.2-5.009 50.462-24.719 3.818zm-4.229 63.423 24.211-3.739-5.035 50.727-22.424 1.73zm-4.256 63.847 21.927-1.692s-4.519 46.162-4.458 46.688h-20.487zm-32.838-117.61 26.043-6.088-3.124 46.855-24.434 3.774zm-2.032 59.806 23.93-3.696-3.169 47.537-22.31 1.721zm-2.062 60.653 21.814-1.683-2.792 43.829h-20.485zm-36.789-110.902 25.747-6.019-1.473 43.334-24.274 3.749zm0 56.249 23.755-3.669-1.509 44.393-22.246 1.717zm0 57.492 21.733-1.677s-1.343 40.615-1.3 40.984h-20.488c.034-.285.055-39.307.055-39.307zm-88.867-8.194-21.64 1.67-3.408-33.373 22.722-3.509zm-3.318-50.245-23.256 3.592-3.182-31.163 24.243-5.667zm-65.785-17.608c-.064-.414.205-.813.613-.909l23.99-5.608 3.021 30.019-23.434 3.619zm6.481 41.952 22.648-3.498 3.244 32.232-21.2 1.636zm11.234 72.719-4.244-27.474 20.405-1.574 2.992 29.732h-18.356c-.4-.001-.736-.288-.797-.684zm34.428.683-3.155-30.898 21.104-1.628 2.167 32.526zm26.258-134.447 24.231-5.664 1.295 36.475-23.254 3.592zm3.265 49.433 22.798-3.521 1.357 38.2-21.753 1.678zm5.486 85.014-2.096-33.681 21.297-1.643 1.284 35.324zm30.373-143.593 25.438-5.947v39.874l-24.101 3.722zm1.873 52.752 23.565-3.64v41.28l-22.167 1.71zm3.132 90.841-1.201-36.48 21.634-1.669.054 38.149zm5.281 42.413 41.023-26.023 41.022 26.023zm212.919 16.066h-72.666c-3.182 0-6.286-.902-8.974-2.606l-64.419-40.865h132.06c2.938 0 5.499 2.089 6.09 4.966zm-2.751-182.922-8.786 56.873-21.359 1.648 7.012-55.106 23.149-3.575c-.005.053-.012.107-.016.16zm2.398-15.713-23.56 3.639 7.038-55.31 25.423-5.943z" fill="#756e78"/><g><circle cx="382.141" cy="456.249" fill="#756e78" r="40.202"/></g><g><path d="m401.18 420.836c3.053 5.667 4.789 12.15 4.789 19.039 0 22.203-17.999 40.202-40.202 40.202-6.889 0-13.371-1.735-19.039-4.789 6.788 12.599 20.099 21.163 35.413 21.163 22.203 0 40.202-17.999 40.202-40.202-.001-15.314-8.565-28.625-21.163-35.413z" fill="#665e66"/></g><g><path d="m380.13 455.249c-6.3 0-12.059-3.559-14.876-9.194l-18.694-37.388c-1.663-3.326.756-7.24 4.474-7.24h40.725c2.763 0 5.002 2.24 5.002 5.002v32.188c0 9.185-7.446 16.632-16.631 16.632z" fill="#e4989d"/></g><g><path d="m391.759 401.427h-18.146c2.763 0 5.002 2.24 5.002 5.002v32.188c0 5.836-3.011 10.96-7.559 13.929 2.651 1.727 5.786 2.703 9.073 2.703 9.186 0 16.632-7.446 16.632-16.632v-32.188c0-2.763-2.239-5.002-5.002-5.002z" fill="#e28086"/></g><g><circle cx="102.07" cy="456.249" fill="#756e78" r="40.202"/></g><g><path d="m121.109 420.836c3.053 5.667 4.789 12.15 4.789 19.039 0 22.203-17.999 40.202-40.202 40.202-6.889 0-13.371-1.735-19.039-4.789 6.788 12.599 20.099 21.163 35.413 21.163 22.203 0 40.202-17.999 40.202-40.202 0-15.314-8.564-28.625-21.163-35.413z" fill="#665e66"/></g><g><path d="m100.059 455.249c-6.3 0-12.059-3.559-14.876-9.194l-18.694-37.388c-1.663-3.326.756-7.24 4.474-7.24h40.725c2.763 0 5.002 2.24 5.002 5.002v32.188c.001 9.185-7.445 16.632-16.631 16.632z" fill="#e4989d"/></g><g><path d="m111.688 401.427h-18.145c2.763 0 5.002 2.24 5.002 5.002v32.188c0 5.836-3.011 10.96-7.559 13.929 2.651 1.727 5.786 2.703 9.073 2.703 9.186 0 16.632-7.446 16.632-16.632v-32.188c0-2.763-2.24-5.002-5.003-5.002z" fill="#e28086"/></g><g><path d="m490.252 59.065h-43.768c-12.011 0-21.748-9.737-21.748-21.748v-.021c0-12.011 9.737-21.748 21.748-21.748h43.768c12.011 0 21.748 9.737 21.748 21.748v.021c0 12.012-9.737 21.748-21.748 21.748z" fill="#e4989d"/></g><g><path d="m499.518 17.624c-1.045 11.043-10.341 19.683-21.657 19.683h-43.747c-3.319 0-6.462-.746-9.276-2.075-.065.683-.101 1.375-.101 2.075 0 12.017 9.742 21.758 21.758 21.758h43.747c12.017 0 21.758-9.741 21.758-21.758 0-8.698-5.106-16.201-12.482-19.683z" fill="#e28086"/></g></g></svg>